<?xml version="1.0" encoding="UTF-8"?>
<svg id="Camada_2" data-name="Camada 2" xmlns="http://www.w3.org/2000/svg" viewBox="0 0 45.91 53">
  <defs>
    <style>
      .cls-1 {
        fill: none;
        stroke: #e2c3e5;
        stroke-linecap: round;
        stroke-linejoin: round;
        stroke-width: 4.8px;
      }

      .cls-1, .cls-2, .cls-3 {
        fill-rule: evenodd;
      }

      .cls-4, .cls-2 {
        fill: #fff;
      }

      .cls-3, .cls-5 {
        fill: #e2c3e5;
      }
    </style>
  </defs>
  <g id="Camada_3" data-name="Camada 3">
    <g>
      <g>
        <ellipse class="cls-4" cx="22.96" cy="19.65" rx="22.96" ry="19.65"/>
        <g>
          <path class="cls-1" d="m18.31,50.6H7.68L3.01,31.24c-1.79-7.41,10.55-7.56,13.24-1.87,1.62-5.17,11.95-5.53,13.39,0,2.7-5.7,15.03-5.55,13.24,1.87l-4.66,19.36h-19.93Z"/>
          <path class="cls-2" d="m18.31,50.6H7.68L3.01,31.24c-1.79-7.41,10.55-7.56,13.24-1.87,1.62-5.17,11.95-5.53,13.39,0,2.7-5.7,15.03-5.55,13.24,1.87l-4.66,19.36h-19.93Z"/>
        </g>
        <path class="cls-3" d="m26.29,12.57c-1.2,1.59-3.59,2.16-3.74.2-.16-1.96,1.04-.57,1.95-1.7.92-1.13,3.09-.2,1.79,1.51Z"/>
        <path class="cls-3" d="m25.97,5.1c-1.23.66-6.14-.64-5.23-1.65.91-1.01,2.34-1.84,3.56-1.6,1.22.24,2.63,2.74,1.66,3.26Z"/>
        <path class="cls-3" d="m42.83,16.02c-1.05,1.07-2.2.68-2.23-.75s-2.58-2.64-.56-2.81c2.01-.16,4.04,2.29,2.79,3.56Z"/>
        <path class="cls-3" d="m28.76,20.17c-1.78.59-1.5-.85-1.75-2.4-.25-1.56,3.53,1.82,1.75,2.4Z"/>
        <path class="cls-3" d="m11.42,11.18c-.9-.48.02-1.74-1.21-3.57-1.23-1.83-.71-2.84.97-2.51,1.68.33,1.12,6.54.24,6.07Z"/>
        <path class="cls-3" d="m17.6,16.99c1.43.43,1.62,1.63.37,2.33-1.25.7-1.15,3.51-2.23,1.8-1.08-1.71.16-4.64,1.86-4.12Z"/>
        <path class="cls-3" d="m33.64,6.91c.52-1.8,1.55-.76,2.97-.09,1.43.67-3.49,1.89-2.97.09Z"/>
        <path class="cls-3" d="m6.34,13.68c-1.7,1.14-2.42,3.55-.42,3.83,2,.28.65-1.03,1.86-1.9,1.22-.87.39-3.15-1.44-1.92Z"/>
        <path class="cls-3" d="m33.48,18.45c.6-.56,1-1,2.72-1.46,1.72-.45,1.53,1,.83,2.19-.7,1.2-4.14-.19-3.55-.74Z"/>
        <path class="cls-3" d="m13.11,11.53c.27-1.09,1.16-1.28,1.74-.36.57.92,2.68.73,1.44,1.61-1.24.88-3.49.06-3.17-1.24Z"/>
      </g>
      <path class="cls-5" d="m14.88,26.87c-.03-.61.44-1.13,1.05-1.16.61-.03,1.13.44,1.16,1.05l1.58,25.46c.03.61-.44.28-1.05.31-.61.03-1.13-.14-1.16-.75l-1.58-24.91Z"/>
      <path class="cls-5" d="m28.63,26.76c.03-.61.55-1.08,1.16-1.05.61.03,1.08.55,1.05,1.16l-1.57,25.05c-.03.61-.55,1.08-1.16,1.05-.61-.03-1.08-.55-1.05-1.16l1.57-25.05Z"/>
    </g>
  </g>
</svg>